<svg version="1.1" id="Layer_1" xmlns="http://www.w3.org/2000/svg" xmlns:xlink="http://www.w3.org/1999/xlink" x="0px" y="0px"
	 width="100%" viewBox="0 0 420 420" enable-background="new 0 0 420 420" xml:space="preserve">
<path fill="#F0F0F0" opacity="1.000000" stroke="none" 
	d="
M278.000000,421.000000 
	C185.333344,421.000000 93.166687,421.000000 1.000025,421.000000 
	C1.000016,281.000031 1.000016,141.000061 1.000008,1.000062 
	C140.999954,1.000041 280.999908,1.000041 420.999908,1.000021 
	C420.999939,140.999939 420.999939,280.999878 420.999969,420.999908 
	C373.500000,421.000000 326.000000,421.000000 278.000000,421.000000 
M36.000000,146.500000 
	C36.000000,179.898026 36.000000,213.296051 36.000000,247.280334 
	C60.138458,247.280334 83.344803,247.280334 106.391739,247.280334 
	C106.391739,270.762848 106.391739,293.648407 106.391739,316.640076 
	C130.013535,316.640076 153.241928,316.640076 176.584930,316.640076 
	C176.584930,293.395691 176.584930,270.510956 176.584930,247.422272 
	C199.538742,247.422272 222.566940,247.422272 246.186783,247.422272 
	C246.186783,270.739319 246.186783,293.640503 246.186783,316.641266 
	C270.011139,316.641266 293.239532,316.641266 317.059692,316.641266 
	C317.059692,293.390106 317.059692,270.488525 317.059692,246.827057 
	C340.664856,246.827057 363.688629,246.827057 386.564453,246.827057 
	C386.564453,199.495697 386.564453,152.936661 386.564453,105.791481 
	C339.903839,105.791481 293.675537,105.791481 246.859634,105.791481 
	C246.859634,82.307472 246.859634,59.407288 246.859634,36.335548 
	C223.035980,36.335548 199.807770,36.335548 176.251495,36.335548 
	C176.157776,38.269524 176.011642,39.896904 176.010300,41.524406 
	C175.994324,60.687420 175.991516,79.850456 176.004593,99.013474 
	C176.009216,105.795326 177.253189,106.993370 184.244614,106.996841 
	C202.907730,107.006111 221.570847,106.993179 240.233948,107.011131 
	C242.003250,107.012833 243.772400,107.169884 246.000000,107.276825 
	C246.000000,109.558510 246.000000,111.356865 246.000000,113.155228 
	C246.000000,131.151810 246.000015,149.148392 246.000000,167.144974 
	C246.000000,176.009277 245.999985,176.003036 237.138733,176.001266 
	C217.078262,175.997253 197.017792,176.000000 176.999985,176.000000 
	C176.999985,155.889328 177.006500,135.613571 176.996780,115.337822 
	C176.992905,107.285835 175.753845,106.006172 167.890961,106.004440 
	C125.732307,105.995163 83.573647,105.997025 41.414993,106.011742 
	C39.799080,106.012306 38.183228,106.184113 36.000000,106.308434 
	C36.000000,119.599838 36.000000,132.549927 36.000000,146.500000 
z"/>
<path fill="#90CADC" opacity="1.000000" stroke="none" 
	d="
M36.000000,146.000000 
	C36.000000,132.549927 36.000000,119.599838 36.000000,106.308434 
	C38.183228,106.184113 39.799080,106.012306 41.414993,106.011742 
	C83.573647,105.997025 125.732307,105.995163 167.890961,106.004440 
	C175.753845,106.006172 176.992905,107.285835 176.996780,115.337822 
	C177.006500,135.613571 176.999985,155.889328 176.999985,176.000000 
	C197.017792,176.000000 217.078262,175.997253 237.138733,176.001266 
	C245.999985,176.003036 246.000000,176.009277 246.000000,167.144974 
	C246.000015,149.148392 246.000000,131.151810 246.000000,113.155228 
	C246.000000,111.356865 246.000000,109.558510 246.000000,107.276825 
	C243.772400,107.169884 242.003250,107.012833 240.233948,107.011131 
	C221.570847,106.993179 202.907730,107.006111 184.244614,106.996841 
	C177.253189,106.993370 176.009216,105.795326 176.004593,99.013474 
	C175.991516,79.850456 175.994324,60.687420 176.010300,41.524406 
	C176.011642,39.896904 176.157776,38.269524 176.251495,36.335548 
	C199.807770,36.335548 223.035980,36.335548 246.859634,36.335548 
	C246.859634,59.407288 246.859634,82.307472 246.859634,105.791481 
	C293.675537,105.791481 339.903839,105.791481 386.564453,105.791481 
	C386.564453,152.936661 386.564453,199.495697 386.564453,246.827057 
	C363.688629,246.827057 340.664856,246.827057 317.059692,246.827057 
	C317.059692,270.488525 317.059692,293.390106 317.059692,316.641266 
	C293.239532,316.641266 270.011139,316.641266 246.186783,316.641266 
	C246.186783,293.640503 246.186783,270.739319 246.186783,247.422272 
	C222.566940,247.422272 199.538742,247.422272 176.584930,247.422272 
	C176.584930,270.510956 176.584930,293.395691 176.584930,316.640076 
	C153.241928,316.640076 130.013535,316.640076 106.391739,316.640076 
	C106.391739,293.648407 106.391739,270.762848 106.391739,247.280334 
	C83.344803,247.280334 60.138458,247.280334 36.000000,247.280334 
	C36.000000,213.296051 36.000000,179.898026 36.000000,146.000000 
z"/>
</svg>